<?xml version="1.0" standalone="no"?>
<!DOCTYPE svg PUBLIC "-//W3C//DTD SVG 1.1//EN" "http://www.w3.org/Graphics/SVG/1.1/DTD/svg11.dtd" >
<svg>
<metadata>
Created by FontForge 20120731 at Tue Jul  2 22:03:04 2019
 By www
Copyright (c) 2011 by Jim Dore. All rights reserved.
</metadata>
<defs>
<font id="Bender-Inline" horiz-adv-x="520" >
  <font-face 
    font-family="Bender Inline"
    font-weight="420"
    font-stretch="normal"
    units-per-em="1000"
    panose-1="2 0 0 0 0 0 0 0 0 0"
    ascent="800"
    descent="-200"
    x-height="600"
    cap-height="600"
    bbox="25 -154 651 810"
    underline-thickness="50"
    underline-position="-50"
    unicode-range="U+0020-201D"
  />
<missing-glyph horiz-adv-x="250" 
 />
    <glyph glyph-name=".notdef" horiz-adv-x="250" 
 />
    <glyph glyph-name=".null" horiz-adv-x="0" 
 />
    <glyph glyph-name="CR" horiz-adv-x="250" 
 />
    <glyph glyph-name="space" unicode=" " horiz-adv-x="250" 
 />
    <glyph glyph-name="parenright" unicode=")" horiz-adv-x="382" 
d="M96 691v-23h67c53 0 97 -44 97 -96v-549c0 -53 -44 -96 -97 -96h-67v-24h67c65 0 119 53 119 120v549c0 66 -53 119 -119 119h-67zM39 611v139h125c97 0 176 -79 176 -176v-551c0 -99 -80 -177 -176 -177h-125v139h125c20 0 37 17 37 37v552c0 22 -18 37 -37 37h-125z
" />
    <glyph glyph-name="asterisk" unicode="*" horiz-adv-x="417" 
d="M376 750v-85l-98 -61l98 -60v-85l-134 84v-144h-68v142l-134 -82v82l102 63l-102 64v82l134 -82v142h68v-143zM349 681v19l-135 -84v166h-12v-164l-135 82v-16l128 -80l-128 -78v-17l135 82v-164h12v165l135 -83v19l-125 76z" />
    <glyph glyph-name="comma" unicode="," horiz-adv-x="262" 
d="M89 105h133l-53 -179h-129zM130 -22l23 75h-25l-19 -75h21z" />
    <glyph glyph-name="hyphen" unicode="-" horiz-adv-x="380" 
d="M40 362h300v-125h-300v125zM288 289v21h-195v-21h195z" />
    <glyph glyph-name="period" unicode="." horiz-adv-x="205" 
d="M40 105h125v-105h-125v105zM113 41v23h-21v-23h21z" />
    <glyph glyph-name="slash" unicode="/" horiz-adv-x="387" 
d="M214 600h133l-178 -600h-128zM130 52l148 496h-25l-144 -496h21z" />
    <glyph glyph-name="zero" unicode="0" horiz-adv-x="521" 
d="M123 158v86l285 76v-162c0 -47 -38 -85 -85 -85h-114c-47 0 -86 38 -86 85zM175 203v-45c0 -18 15 -33 34 -33h114c18 0 33 15 33 33v94zM323 600c87 0 158 -71 158 -159v-283c0 -87 -71 -158 -158 -158h-114c-87 0 -159 71 -159 158v283c0 88 72 159 159 159h114z
M429 158v283c0 59 -48 107 -106 107h-114c-59 0 -107 -48 -107 -107v-283c0 -58 48 -106 107 -106h114c58 0 106 48 106 106zM323 527c47 0 85 -39 85 -86v-99l-285 -76v175c0 47 39 86 86 86h114zM356 382v59c0 19 -15 34 -33 34h-114c-19 0 -34 -15 -34 -34v-107z" />
    <glyph glyph-name="one" unicode="1" horiz-adv-x="307" 
d="M142 600h125v-600h-125v476h-92v42c0 33 40 81 92 82zM215 52v497h-70c-16 -1 -30 -12 -37 -21h86v-476h21z" />
    <glyph glyph-name="two" unicode="2" horiz-adv-x="530" 
d="M203 248c-16 -3 -28 -17 -28 -35v-88h313v-125h-438v213c0 89 71 160 158 160c0 0 7 0 19 -3s116 -27 116 -27c4 -1 9 -3 13 -3c2 0 4 1 6 2s3 5 3 12v88c0 18 -15 33 -34 33h-124c-18 -1 -32 -15 -32 -33v-24h-125v24c0 84 66 153 148 158h10h123c88 0 159 -71 159 -158
v-88c0 -45 -18 -85 -51 -111c-23 -18 -53 -29 -83 -29c-12 0 -24 2 -36 5zM436 73h-313v140c0 43 30 79 71 86c0 0 8 1 11 1c5 0 11 -1 17 -2l110 -28c8 -2 16 -3 24 -3c19 0 37 6 51 17c20 16 31 41 31 70c0 50 1 83 1 88c0 59 -49 107 -108 107h-121c-1 0 -8 -1 -8 -1
c-47 -3 -85 -35 -97 -78h22c12 32 41 55 78 57h126c48 0 86 -38 86 -85v-88c0 -23 -8 -42 -23 -53c-10 -8 -24 -13 -38 -13c-6 0 -13 1 -19 3l-113 27s-12 3 -16 3c-58 0 -106 -48 -106 -108v-161h334v21z" />
    <glyph glyph-name="three" unicode="3" horiz-adv-x="518" 
d="M383 315c56 -25 95 -81 95 -147v-10c0 -87 -71 -158 -159 -158h-267v125h267c19 0 34 15 34 33v10c0 19 -15 34 -34 34h-167v126h78c19 0 35 15 35 34v80c0 18 -16 33 -35 33h-180v125h180c89 0 160 -71 160 -158v-80c0 -17 -2 -32 -7 -47zM426 158v10
c0 60 -48 108 -107 108h-23c26 20 42 51 42 86v80c0 59 -48 107 -108 107h-128v-22h128c48 0 87 -38 87 -85v-80c0 -48 -39 -86 -87 -86h-28v-21h117c47 0 86 -39 86 -87v-10c0 -47 -39 -85 -86 -85h-217v-22h217c59 0 107 48 107 107z" />
    <glyph glyph-name="four" unicode="4" horiz-adv-x="521" 
d="M356 600h125v-600h-125v206c-10 -3 -22 -4 -33 -4h-114c-87 0 -159 72 -159 160v238h125v-238c0 -19 16 -34 34 -34h114c18 0 33 15 33 34v238zM430 362v187h-22v-187c0 -48 -38 -86 -85 -86h-114c-47 0 -85 38 -85 86v187h-22v-187c0 -59 48 -107 107 -107h114
c35 0 66 16 85 42v-246h22v311z" />
    <glyph glyph-name="five" unicode="5" horiz-adv-x="529" 
d="M489 247v-88c0 -88 -71 -159 -159 -159h-125l-7 1c-82 5 -148 74 -148 158v24h125v-24c0 -18 14 -33 32 -34h123c19 0 34 15 34 34v88c0 7 0 11 -3 12c-1 0 -3 1 -5 1c-6 0 -13 -2 -18 -3c0 0 -90 -22 -108 -26c-13 -4 -22 -4 -22 -4c-87 0 -158 71 -158 159v214h437
v-125h-312v-89c0 -15 8 -33 26 -33c2 0 5 0 8 1l110 27c12 3 24 4 36 4c31 0 60 -9 83 -28c33 -26 51 -66 51 -110zM330 52c59 0 108 48 108 107c0 2 -1 35 -1 88c0 28 -11 54 -31 69c-14 11 -32 17 -51 17c-8 0 -16 -1 -24 -3c0 0 -92 -24 -105 -26c-10 -2 -19 -3 -32 -3
c-41 7 -71 43 -71 85v140h312v22h-333v-162c0 -59 48 -106 107 -106c19 0 127 30 127 30c6 1 13 2 19 2c14 0 28 -4 38 -12c15 -12 23 -31 23 -53v-88c0 -47 -38 -86 -86 -86h-126c-36 2 -65 26 -76 58h-23c12 -43 50 -76 100 -79h5h120z" />
    <glyph glyph-name="six" unicode="6" horiz-adv-x="521" 
d="M384 301c15 -12 24 -31 24 -53v-89c0 -48 -39 -86 -86 -86h-119c-21 0 -40 10 -55 24c-16 16 -25 37 -25 60v104l204 50c7 1 13 2 19 2c15 0 28 -4 38 -12zM322 125c18 0 34 15 34 34v89c0 7 -2 11 -4 12c-1 1 -3 1 -6 1c-2 0 -4 0 -7 -1l-164 -40v-63c0 -9 3 -17 9 -23
c6 -5 13 -9 21 -9h117zM429 358c33 -26 52 -66 52 -110v-89c0 -88 -72 -159 -159 -159h-123l-10 1c-35 4 -67 19 -93 44c-30 30 -46 70 -46 113v284c0 87 71 158 158 158h114c88 0 159 -71 159 -158h-125c0 18 -15 33 -34 33h-114c-18 0 -33 -15 -33 -33v-93l135 33
c12 3 24 4 36 4c31 0 60 -9 83 -28zM322 52c59 0 107 48 107 107v89c0 28 -12 54 -32 69c-14 11 -32 17 -51 17c-8 0 -16 -1 -24 -3l-199 -48v159c0 47 38 85 85 85h114c28 0 52 -13 68 -33h25c-18 32 -53 55 -93 55h-114c-58 0 -106 -48 -106 -107v-284
c0 -29 11 -56 31 -76c17 -17 38 -27 62 -29l5 -1h122z" />
    <glyph glyph-name="seven" unicode="7" horiz-adv-x="541" 
d="M50 600h451l-179 -600h-129l138 475h-281v125zM284 52l146 496h-328v-22h298l-138 -474h22z" />
    <glyph glyph-name="eight" unicode="8" horiz-adv-x="530" 
d="M490 441v-28c0 -40 -12 -74 -34 -101c21 -27 34 -61 34 -98v-55c0 -88 -71 -159 -159 -159h-122c-86 0 -159 68 -159 153v26c0 33 10 63 27 89c-17 24 -27 53 -27 85v88c0 88 71 159 159 159h122c88 0 159 -71 159 -159zM438 413v28c0 59 -48 107 -107 107h-122
c-59 0 -107 -48 -107 -107v-88c0 -29 11 -54 31 -70c6 -4 13 -8 20 -11c-31 -20 -51 -55 -51 -93v-30c5 -54 51 -97 107 -97h122c59 0 107 48 107 107v55c0 44 -27 83 -66 99c45 20 66 52 66 100zM185 264l148 35c46 -1 83 -39 83 -85v-55c0 -47 -38 -86 -85 -86h-122
c-47 0 -85 38 -86 84v22c0 38 27 74 62 85zM365 214c0 16 -12 31 -28 33c-3 0 -128 -30 -128 -30c-18 -5 -34 -19 -34 -38v-21c1 -18 16 -33 34 -33h122c19 0 34 15 34 34v55zM331 527c47 0 85 -38 85 -85v-29c0 -49 -26 -78 -89 -93l-132 -31c-4 -1 -8 -1 -12 -1
c-14 0 -26 4 -36 12c-15 12 -24 31 -24 53v88c0 47 39 86 86 86h122zM314 370c51 13 51 28 51 43v29c-1 18 -16 33 -34 33h-122c-19 0 -34 -15 -34 -34v-88c0 -7 2 -11 4 -12c1 -1 4 -2 6 -2c4 0 9 2 13 3z" />
    <glyph glyph-name="nine" unicode="9" 
d="M325 527c21 -1 42 -9 57 -24c16 -16 25 -38 25 -60v-103l-204 -50c-6 -1 -12 -2 -19 -2c-14 0 -27 4 -38 12c-15 12 -23 31 -23 53v88c0 47 39 86 86 86h116zM355 381v62c0 8 -4 17 -10 23s-13 9 -22 9h-114c-19 0 -34 -15 -34 -34v-88c0 -7 2 -11 4 -12c1 -1 2 -1 5 -1
c2 0 4 0 7 1zM433 555c30 -30 47 -70 47 -112v-284c0 -87 -71 -159 -159 -159h-112c-88 0 -159 72 -159 159h125c0 -19 15 -34 34 -34h112c19 0 34 15 34 34v93l-134 -33c-12 -3 -25 -4 -36 -4c-31 0 -60 9 -84 28c-32 25 -51 66 -51 110v88c0 88 71 159 159 159h113
c42 0 81 -16 111 -45zM428 159v284c0 28 -11 55 -31 75c-19 18 -44 30 -70 30h-118c-59 0 -107 -48 -107 -107v-88c0 -28 11 -54 31 -69c15 -11 32 -17 52 -17c7 0 15 1 23 3l199 48v-159c0 -47 -39 -86 -86 -86h-112c-28 0 -53 14 -68 34h-26c19 -33 54 -55 94 -55h112
c59 0 107 48 107 107z" />
    <glyph glyph-name="colon" unicode=":" horiz-adv-x="205" 
d="M40 506h125v-106h-125v106zM114 442v22h-22v-22h22zM40 310h125v-107h-125v107zM114 246v23h-22v-23h22z" />
    <glyph glyph-name="semicolon" unicode=";" horiz-adv-x="265" 
d="M90 506h125v-106h-125v106zM163 442v22h-21v-22h21zM82 287h133l-53 -180h-130zM123 159l22 76h-24l-20 -76h22z" />
    <glyph glyph-name="question" unicode="?" 
d="M164 106h126v-106h-126v106zM237 41v23h-21v-23h21zM480 441v-61c0 -63 -41 -136 -156 -136c-18 0 -33 -15 -33 -35v-42h-126v42c0 89 71 160 159 160c13 0 31 6 31 25v47c0 19 -15 34 -34 34h-124c-18 -1 -32 -16 -32 -34v-24h-125v24c0 84 66 153 148 159h133
c88 0 159 -72 159 -159zM428 386v55c0 59 -48 107 -107 107h-121h-8c-47 -3 -85 -36 -97 -79h23c11 32 40 56 77 58h126c48 0 86 -39 86 -86v-47c0 -44 -35 -77 -83 -77c-55 0 -102 -43 -107 -98h21c5 43 42 77 86 77c79 0 104 65 104 90z" />
    <glyph glyph-name="A" unicode="A" 
d="M322 527c47 0 85 -39 85 -86v-130l-283 -75v205c0 47 38 86 85 86h113zM355 351v90c0 18 -15 33 -33 33h-113c-18 0 -33 -15 -33 -33v-138zM322 600c88 0 159 -71 159 -159v-441h-126v222l-179 -49v-173h-126v441c0 88 71 159 159 159h113zM429 51v390
c0 58 -48 107 -107 107h-113c-59 0 -107 -49 -107 -107v-390h22v162l283 76v-238h22z" />
    <glyph glyph-name="B" unicode="B" horiz-adv-x="506" 
d="M278 312c0 0 -4 -4 -17 -8c-13 -3 -147 -33 -147 -33v256h123c47 0 85 -39 85 -86v-55c0 -31 -16 -59 -44 -74zM166 333l77 18c15 4 26 18 26 23v67c0 19 -15 34 -34 34h-69v-142zM392 352c53 -26 89 -80 89 -142v-51c0 -88 -72 -159 -159 -159h-282v600h195
c88 0 159 -71 159 -159v-66c0 -8 0 -15 -2 -23zM428 154v55c0 58 -49 105 -106 105h-7c18 19 29 45 29 72v55c0 59 -48 107 -107 107h-145v-500h230c58 0 106 48 106 106zM330 293h6c39 -6 71 -42 71 -84v-55c0 -47 -38 -85 -85 -85h-208v176c7 0 77 18 85 19l100 25
s19 4 31 4zM355 155v55c0 16 -12 30 -28 33l-161 -39v-83h156c18 0 33 15 33 34z" />
    <glyph glyph-name="C" unicode="C" horiz-adv-x="517" 
d="M478 398h-124v43c0 19 -15 34 -33 34h-112c-20 0 -35 -15 -35 -34v-282c0 -19 15 -34 35 -34h112c18 0 33 15 33 34v62h124v-62c0 -88 -70 -159 -157 -159h-112c-88 0 -159 71 -159 159v282c0 88 71 159 159 159h112c87 0 157 -71 157 -159v-43zM321 527
c44 0 80 -34 84 -78h21c-4 56 -50 99 -105 99h-112c-60 0 -108 -48 -108 -107v-282c0 -59 48 -107 108 -107h112c58 0 106 48 106 107v11h-21v-11c0 -48 -39 -86 -85 -86h-112c-48 0 -87 38 -87 86v282c0 48 39 86 87 86h112z" />
    <glyph glyph-name="D" unicode="D" 
d="M321 527c47 0 86 -39 86 -85v-285c0 -45 -38 -83 -86 -83h-198v453h198zM355 157v285c0 17 -15 32 -34 32h-146v-349h146c19 0 34 15 34 32zM321 600c88 0 159 -71 159 -158v-285c0 -86 -70 -157 -159 -157h-271v600h271zM429 157v285c0 57 -49 106 -108 106h-220v-497
h220c59 0 108 49 108 106z" />
    <glyph glyph-name="E" unicode="E" horiz-adv-x="458" 
d="M175 159c0 -18 15 -33 34 -33h209v-126h-209c-88 0 -159 71 -159 159v283c0 87 70 158 159 158h208v-124h-208c-19 0 -34 -15 -34 -34v-128l184 49v-130l-184 -48v-26zM366 52v21h-157c-47 0 -86 39 -86 86v65l183 49v23l-183 -50v196c0 47 38 85 86 85h157v22h-157
c-59 0 -107 -48 -107 -107v-283c0 -58 48 -107 107 -107h157z" />
    <glyph glyph-name="F" unicode="F" horiz-adv-x="458" 
d="M208 475c-18 0 -33 -16 -33 -34v-128l184 49v-130l-184 -49v-183h-125v441c0 87 69 159 158 159h210v-125h-210zM306 295l-184 -50v196c0 47 38 85 86 85h158v22h-158c-58 0 -107 -48 -107 -107v-389h21v171l184 49v23z" />
    <glyph glyph-name="G" unicode="G" horiz-adv-x="518" 
d="M478 400l-125 -1v43c0 19 -15 34 -34 34h-112c-18 0 -33 -15 -33 -34v-284c0 -18 15 -33 33 -33h112c19 0 34 13 34 31v33l-90 -22v129l215 54v-193c0 -87 -72 -157 -159 -157h-112c-87 0 -157 71 -157 158v284c0 87 70 158 157 158h112c87 0 159 -71 159 -158v-42z
M319 527c44 0 81 -33 85 -76h21c-4 54 -50 97 -106 97h-112c-58 0 -106 -47 -106 -106v-284c0 -58 48 -106 106 -106h112c58 0 106 46 106 105v127l-110 -28v-22l90 22v-99c0 -47 -39 -84 -86 -84h-112c-46 0 -85 38 -85 85v284c0 47 39 85 85 85h112z" />
    <glyph glyph-name="H" unicode="H" 
d="M355 600h125v-600h-125v222l-180 -49v-173h-125v600h125v-297l180 48v249zM429 51v497h-22v-237l-284 -75v312h-22v-497h22v162l284 76v-238h22z" />
    <glyph glyph-name="I" unicode="I" horiz-adv-x="215" 
d="M50 600h125v-600h-125v600zM124 51v496h-22v-496h22z" />
    <glyph glyph-name="J" unicode="J" horiz-adv-x="519" 
d="M354 600h125v-441c0 -88 -71 -159 -157 -159h-113c-88 0 -159 71 -159 159v103h125v-103c0 -19 15 -34 34 -34h113c18 0 32 15 32 34v441zM428 159v389h-22v-389c0 -47 -38 -86 -84 -86h-113c-47 0 -86 39 -86 86v51h-21v-51c0 -59 48 -107 107 -107h113
c58 0 106 48 106 107z" />
    <glyph glyph-name="K" unicode="K" horiz-adv-x="496" 
d="M471 600l-88 -317l76 -283h-130l-57 211l-97 -27v-184h-125v600h125v-286l94 25l70 261h132zM390 52l-61 231l74 264h-24l-69 -250l-187 -51v301h-22v-496h22v173l187 50l59 -222h21z" />
    <glyph glyph-name="L" unicode="L" horiz-adv-x="443" 
d="M417 125l1 -125h-209c-87 0 -159 71 -159 158v442h125v-442c0 -18 15 -33 34 -33h208zM209 51h157v22h-157c-47 0 -85 38 -85 85v388h-23v-388c0 -58 49 -107 108 -107z" />
    <glyph glyph-name="M" unicode="M" horiz-adv-x="691" 
d="M492 600c88 0 159 -71 159 -159v-441h-125v441c0 18 -15 33 -34 33h-45c-18 0 -34 -15 -34 -33v-221l-125 -31v252c0 18 -16 33 -34 33h-79v-474h-125v600h204c37 0 70 -13 97 -33c26 20 59 33 96 33h45zM600 51v390c0 58 -49 107 -108 107h-45c-18 0 -40 -2 -69 -26
c-12 -10 -21 -24 -27 -34c-5 11 -15 22 -28 34c-25 23 -52 26 -69 26h-152v-497h21v476h131c48 0 86 -39 86 -86v-185l21 5v180c0 47 38 86 86 86h45c47 0 86 -39 86 -86v-390h22z" />
    <glyph glyph-name="N" unicode="N" horiz-adv-x="522" 
d="M325 600c85 0 157 -72 157 -159v-441h-125v441c0 18 -14 34 -32 34h-150v-475h-125v600h275zM429 52v389c0 59 -47 107 -104 107h-222v-496h21v475h201c45 0 83 -39 83 -86v-389h21z" />
    <glyph glyph-name="O" unicode="O" horiz-adv-x="500" 
d="M312 527c47 0 85 -39 85 -86v-283c0 -47 -38 -85 -85 -85h-114c-47 0 -85 38 -85 85v283c0 47 38 86 85 86h114zM345 158v283c0 18 -15 33 -33 33h-114c-18 0 -33 -15 -33 -33v-283c0 -18 15 -33 33 -33h114c18 0 33 15 33 33zM312 600c87 0 158 -72 158 -159v-283
c0 -87 -71 -158 -158 -158h-114c-86 0 -158 71 -158 158v283c0 87 72 159 158 159h114zM419 158v283c0 59 -49 107 -107 107h-114c-58 0 -107 -48 -107 -107v-283c0 -58 49 -107 107 -107h114c58 0 107 49 107 107z" />
    <glyph glyph-name="P" unicode="P" horiz-adv-x="516" 
d="M332 527c47 0 85 -38 85 -86v-56c0 -30 -17 -59 -44 -74c0 0 -5 -5 -18 -8c-12 -3 -231 -60 -231 -60v284h208zM365 385v56c0 18 -15 33 -33 33h-157v-163l173 45c9 6 17 17 17 29zM332 600c87 0 158 -71 158 -159v-56c0 -75 -55 -136 -124 -154l-191 -50v-181h-125v600
h282zM438 385v56c0 59 -48 107 -106 107h-229v-496h21v170l230 60c49 10 84 54 84 103z" />
    <glyph glyph-name="Q" unicode="Q" 
d="M324 600c87 0 159 -71 159 -158v-284c0 -67 -50 -124 -109 -147l17 -72h-131l-13 61h-37c-87 0 -158 70 -158 158v284c0 87 71 158 158 158h114zM431 442c0 58 -48 107 -107 107h-114c-17 0 -36 -5 -51 -14c-27 -15 -56 -47 -56 -93v-284c0 -59 49 -107 107 -107h79
l13 -60h23l-14 60h13c45 0 107 35 107 107v284zM324 527h21h-21c48 0 86 -38 86 -85v-286c-3 -15 -6 -28 -14 -44c-16 -24 -42 -40 -72 -40h-18l-23 97l-21 -5l22 -92h-74c-47 0 -85 40 -85 86v284c0 54 45 85 85 85h114zM358 158v284c0 18 -15 33 -34 33h-114
c-18 0 -33 -15 -33 -33v-284c0 -18 15 -33 33 -33h8l-19 76l122 33l25 -101c2 2 4 3 6 6c3 6 6 14 6 19z" />
    <glyph glyph-name="R" unicode="R" horiz-adv-x="516" 
d="M329 527c47 0 85 -38 85 -86v-56c0 -30 -17 -59 -44 -74l-5 -4l-244 -64v284h208zM362 385v56c0 18 -15 33 -33 33h-157v-163l173 45c9 6 17 17 17 29zM487 385c0 -62 -36 -116 -90 -142l65 -243h-129l-56 209l-105 -28v-181h-125v600h282c87 0 158 -71 158 -159v-56z
M435 385v56c0 59 -48 107 -106 107h-229v-496h21v170l193 51l58 -221h22l-60 226s29 7 40 12c35 13 61 55 61 95z" />
    <glyph glyph-name="S" unicode="S" horiz-adv-x="531" 
d="M490 417h-125v24c0 18 -15 32 -32 33h-123c-19 0 -35 -15 -35 -33v-89c0 -7 2 -11 3 -12s3 -1 6 -1c2 0 5 0 8 1l111 26s19 4 29 4c84 0 158 -70 158 -157v-54c0 -88 -72 -159 -158 -159h-123c-88 0 -159 71 -159 159v5h125v-5c0 -18 16 -34 34 -34h123c18 0 33 16 33 34
v54c0 18 -13 30 -28 34c-5 1 -116 -29 -116 -29c-12 -3 -24 -4 -36 -4c-31 0 -60 9 -83 29c-33 25 -52 64 -52 109v88c0 88 72 160 160 160h132c83 0 148 -75 148 -159v-24zM336 526c35 -1 65 -25 76 -57h22c-12 43 -50 75 -96 78h-128c-60 0 -108 -47 -108 -107
c0 -1 0 -34 1 -88c0 -28 11 -53 31 -69c14 -11 31 -17 51 -17c8 0 16 1 24 3l100 24s20 5 32 5h5c39 -7 71 -42 71 -85v-54c0 -48 -39 -86 -85 -86h-123c-30 0 -56 15 -72 38h-24c18 -35 54 -59 96 -59h123c58 0 106 48 106 107v54c0 59 -50 106 -106 106
c-10 0 -32 -6 -32 -6l-96 -23c-6 -2 -13 -3 -19 -3c-15 0 -28 5 -38 13c-15 11 -24 30 -24 52v89c0 47 39 85 87 85h126z" />
    <glyph glyph-name="T" unicode="T" horiz-adv-x="490" 
d="M50 600h410v-125h-141v-475h-126v475h-143v125zM407 527v21h-305v-21h144v-475h21v475h140z" />
    <glyph glyph-name="U" unicode="U" 
d="M355 600h125v-442c0 -87 -71 -158 -158 -158h-114c-87 0 -158 71 -158 158v442h125v-442c0 -18 15 -33 33 -33h114c18 0 33 15 33 33v442zM429 158v390h-22v-390c0 -47 -38 -85 -85 -85h-114c-47 0 -85 38 -85 85v390h-22v-390c0 -58 49 -107 107 -107h114
c58 0 107 49 107 107z" />
    <glyph glyph-name="V" unicode="V" horiz-adv-x="535" 
d="M510 600l-178 -600h-129l-178 600h133l109 -377l110 377h133zM294 52l146 497h-24l-138 -477h-21l-138 477h-24l146 -497h53z" />
    <glyph glyph-name="W" unicode="W" horiz-adv-x="690" 
d="M525 600h125v-600h-204c-36 0 -69 12 -96 33c-27 -21 -60 -33 -96 -33h-45c-88 0 -159 71 -159 159v441h125v-441c0 -19 15 -34 34 -34h45c18 0 34 15 34 34v220l125 31v-251c0 -19 15 -34 33 -34h79v475zM598 52v496h-21v-475h-131c-47 0 -85 39 -85 86v185l-21 -6v-179
c0 -47 -39 -86 -86 -86h-45c-48 0 -86 39 -86 86v390h-21v-390c0 -59 48 -107 107 -107h45c23 0 46 8 65 22c0 0 26 25 31 34c6 -9 32 -34 32 -34c19 -14 41 -22 64 -22h152z" />
    <glyph glyph-name="X" unicode="X" horiz-adv-x="475" 
d="M449 600l-87 -300l87 -300h-130l-70 237h-24l-71 -237h-129l87 300l-87 300h129l71 -238h24l70 238h130zM379 52l-71 248l71 248h-21l-70 -238h-102l-71 238h-21l72 -248l-72 -248h21l71 238h102l70 -238h21z" />
    <glyph glyph-name="Y" unicode="Y" horiz-adv-x="491" 
d="M335 600h126v-239c0 -86 -68 -155 -153 -159v-202h-125v202c-85 4 -153 73 -153 159v239h126v-239c0 -19 15 -34 34 -34h112c19 0 33 15 33 34v239zM409 361v188h-21v-188c0 -48 -40 -86 -86 -86h-112c-48 0 -87 38 -87 86v188h-21v-188c0 -59 45 -107 103 -107h50v-202
h22v203h49c57 0 103 47 103 106z" />
    <glyph glyph-name="Z" unicode="Z" horiz-adv-x="470" 
d="M191 126h238v-126h-261c-50 0 -88 21 -108 56c-8 14 -11 31 -11 47c0 25 8 50 24 74l2 3l223 294h-243v126h264c48 0 88 -22 108 -57c8 -13 11 -30 11 -47c0 -24 -8 -50 -24 -75zM386 51v24h-216c-21 0 -36 6 -42 16c-2 4 -3 8 -3 12c0 9 4 21 11 32l226 301
c22 27 28 47 28 58c0 9 -2 18 -6 25c-12 19 -34 29 -63 29h-221v-23h221c22 0 35 -6 41 -17c2 -5 3 -9 3 -14c0 -9 -4 -20 -11 -31l-237 -314c-11 -16 -16 -30 -16 -45c0 -8 2 -17 6 -24c12 -22 39 -29 64 -29h215z" />
    <glyph glyph-name="bracketleft" unicode="[" horiz-adv-x="381" 
d="M284 -95v23h-67c-53 0 -97 44 -97 96v549c0 53 44 96 97 96h67v24h-67c-65 0 -119 -53 -119 -120v-549c0 -66 53 -119 119 -119h67zM341 -15v-139h-125c-97 0 -176 79 -176 176v551c0 99 80 177 176 177h125v-139h-125c-20 0 -37 -17 -37 -37v-552c0 -22 18 -37 37 -37
h125z" />
    <glyph glyph-name="backslash" unicode="\" horiz-adv-x="387" 
d="M41 600h133l173 -600h-128zM110 548l148 -496h21l-144 496h-25z" />
    <glyph glyph-name="bracketright" unicode="]" horiz-adv-x="382" 
d="M96 691v-23h67c53 0 97 -44 97 -96v-549c0 -53 -44 -96 -97 -96h-67v-24h67c65 0 119 53 119 120v549c0 66 -53 119 -119 119h-67zM39 611v139h125c97 0 176 -79 176 -176v-551c0 -99 -80 -177 -176 -177h-125v139h125c20 0 37 17 37 37v552c0 22 -18 37 -37 37h-125z
" />
    <glyph glyph-name="a" unicode="a" 
d="M322 527c47 0 85 -39 85 -86v-130l-283 -75v205c0 47 38 86 85 86h113zM355 351v90c0 18 -15 33 -33 33h-113c-18 0 -33 -15 -33 -33v-138zM322 600c88 0 159 -71 159 -159v-441h-126v222l-179 -49v-173h-126v441c0 88 71 159 159 159h113zM429 51v390
c0 58 -48 107 -107 107h-113c-59 0 -107 -49 -107 -107v-390h22v162l283 76v-238h22z" />
    <glyph glyph-name="b" unicode="b" horiz-adv-x="506" 
d="M278 312c0 0 -4 -4 -17 -8c-13 -3 -147 -33 -147 -33v256h123c47 0 85 -39 85 -86v-55c0 -31 -16 -59 -44 -74zM166 333l77 18c15 4 26 18 26 23v67c0 19 -15 34 -34 34h-69v-142zM392 352c53 -26 89 -80 89 -142v-51c0 -88 -72 -159 -159 -159h-282v600h195
c88 0 159 -71 159 -159v-66c0 -8 0 -15 -2 -23zM428 154v55c0 58 -49 105 -106 105h-7c18 19 29 45 29 72v55c0 59 -48 107 -107 107h-145v-500h230c58 0 106 48 106 106zM330 293h6c39 -6 71 -42 71 -84v-55c0 -47 -38 -85 -85 -85h-208v176c7 0 77 18 85 19l100 25
s19 4 31 4zM355 155v55c0 16 -12 30 -28 33l-161 -39v-83h156c18 0 33 15 33 34z" />
    <glyph glyph-name="c" unicode="c" horiz-adv-x="517" 
d="M478 398h-124v43c0 19 -15 34 -33 34h-112c-20 0 -35 -15 -35 -34v-282c0 -19 15 -34 35 -34h112c18 0 33 15 33 34v62h124v-62c0 -88 -70 -159 -157 -159h-112c-88 0 -159 71 -159 159v282c0 88 71 159 159 159h112c87 0 157 -71 157 -159v-43zM321 527
c44 0 80 -34 84 -78h21c-4 56 -50 99 -105 99h-112c-60 0 -108 -48 -108 -107v-282c0 -59 48 -107 108 -107h112c58 0 106 48 106 107v11h-21v-11c0 -48 -39 -86 -85 -86h-112c-48 0 -87 38 -87 86v282c0 48 39 86 87 86h112z" />
    <glyph glyph-name="d" unicode="d" 
d="M321 527c47 0 86 -39 86 -85v-285c0 -45 -38 -83 -86 -83h-198v453h198zM355 157v285c0 17 -15 32 -34 32h-146v-349h146c19 0 34 15 34 32zM321 600c88 0 159 -71 159 -158v-285c0 -86 -70 -157 -159 -157h-271v600h271zM429 157v285c0 57 -49 106 -108 106h-220v-497
h220c59 0 108 49 108 106z" />
    <glyph glyph-name="e" unicode="e" horiz-adv-x="458" 
d="M175 159c0 -18 15 -33 34 -33h209v-126h-209c-88 0 -159 71 -159 159v283c0 87 70 158 159 158h208v-124h-208c-19 0 -34 -15 -34 -34v-128l184 49v-130l-184 -48v-26zM366 52v21h-157c-47 0 -86 39 -86 86v65l183 49v23l-183 -50v196c0 47 38 85 86 85h157v22h-157
c-59 0 -107 -48 -107 -107v-283c0 -58 48 -107 107 -107h157z" />
    <glyph glyph-name="f" unicode="f" horiz-adv-x="458" 
d="M208 475c-18 0 -33 -16 -33 -34v-128l184 49v-130l-184 -49v-183h-125v441c0 87 69 159 158 159h210v-125h-210zM306 295l-184 -50v196c0 47 38 85 86 85h158v22h-158c-58 0 -107 -48 -107 -107v-389h21v171l184 49v23z" />
    <glyph glyph-name="g" unicode="g" horiz-adv-x="518" 
d="M478 400l-125 -1v43c0 19 -15 34 -34 34h-112c-18 0 -33 -15 -33 -34v-284c0 -18 15 -33 33 -33h112c19 0 34 13 34 31v33l-90 -22v129l215 54v-193c0 -87 -72 -157 -159 -157h-112c-87 0 -157 71 -157 158v284c0 87 70 158 157 158h112c87 0 159 -71 159 -158v-42z
M319 527c44 0 81 -33 85 -76h21c-4 54 -50 97 -106 97h-112c-58 0 -106 -47 -106 -106v-284c0 -58 48 -106 106 -106h112c58 0 106 46 106 105v127l-110 -28v-22l90 22v-99c0 -47 -39 -84 -86 -84h-112c-46 0 -85 38 -85 85v284c0 47 39 85 85 85h112z" />
    <glyph glyph-name="h" unicode="h" 
d="M355 600h125v-600h-125v222l-180 -49v-173h-125v600h125v-297l180 48v249zM429 51v497h-22v-237l-284 -75v312h-22v-497h22v162l284 76v-238h22z" />
    <glyph glyph-name="i" unicode="i" horiz-adv-x="215" 
d="M50 600h125v-600h-125v600zM124 51v496h-22v-496h22z" />
    <glyph glyph-name="j" unicode="j" horiz-adv-x="519" 
d="M354 600h125v-441c0 -88 -71 -159 -157 -159h-113c-88 0 -159 71 -159 159v103h125v-103c0 -19 15 -34 34 -34h113c18 0 32 15 32 34v441zM428 159v389h-22v-389c0 -47 -38 -86 -84 -86h-113c-47 0 -86 39 -86 86v51h-21v-51c0 -59 48 -107 107 -107h113
c58 0 106 48 106 107z" />
    <glyph glyph-name="k" unicode="k" horiz-adv-x="496" 
d="M471 600l-88 -317l76 -283h-130l-57 211l-97 -27v-184h-125v600h125v-286l94 25l70 261h132zM390 52l-61 231l74 264h-24l-69 -250l-187 -51v301h-22v-496h22v173l187 50l59 -222h21z" />
    <glyph glyph-name="l" unicode="l" horiz-adv-x="443" 
d="M417 125l1 -125h-209c-87 0 -159 71 -159 158v442h125v-442c0 -18 15 -33 34 -33h208zM209 51h157v22h-157c-47 0 -85 38 -85 85v388h-23v-388c0 -58 49 -107 108 -107z" />
    <glyph glyph-name="m" unicode="m" horiz-adv-x="691" 
d="M492 600c88 0 159 -71 159 -159v-441h-125v441c0 18 -15 33 -34 33h-45c-18 0 -34 -15 -34 -33v-221l-125 -31v252c0 18 -16 33 -34 33h-79v-474h-125v600h204c37 0 70 -13 97 -33c26 20 59 33 96 33h45zM600 51v390c0 58 -49 107 -108 107h-45c-18 0 -40 -2 -69 -26
c-12 -10 -21 -24 -27 -34c-5 11 -15 22 -28 34c-25 23 -52 26 -69 26h-152v-497h21v476h131c48 0 86 -39 86 -86v-185l21 5v180c0 47 38 86 86 86h45c47 0 86 -39 86 -86v-390h22z" />
    <glyph glyph-name="n" unicode="n" horiz-adv-x="522" 
d="M325 600c85 0 157 -72 157 -159v-441h-125v441c0 18 -14 34 -32 34h-150v-475h-125v600h275zM429 52v389c0 59 -47 107 -104 107h-222v-496h21v475h201c45 0 83 -39 83 -86v-389h21z" />
    <glyph glyph-name="o" unicode="o" horiz-adv-x="500" 
d="M312 527c47 0 85 -39 85 -86v-283c0 -47 -38 -85 -85 -85h-114c-47 0 -85 38 -85 85v283c0 47 38 86 85 86h114zM345 158v283c0 18 -15 33 -33 33h-114c-18 0 -33 -15 -33 -33v-283c0 -18 15 -33 33 -33h114c18 0 33 15 33 33zM312 600c87 0 158 -72 158 -159v-283
c0 -87 -71 -158 -158 -158h-114c-86 0 -158 71 -158 158v283c0 87 72 159 158 159h114zM419 158v283c0 59 -49 107 -107 107h-114c-58 0 -107 -48 -107 -107v-283c0 -58 49 -107 107 -107h114c58 0 107 49 107 107z" />
    <glyph glyph-name="p" unicode="p" horiz-adv-x="516" 
d="M332 527c47 0 85 -38 85 -86v-56c0 -30 -17 -59 -44 -74c0 0 -5 -5 -18 -8c-12 -3 -231 -60 -231 -60v284h208zM365 385v56c0 18 -15 33 -33 33h-157v-163l173 45c9 6 17 17 17 29zM332 600c87 0 158 -71 158 -159v-56c0 -75 -55 -136 -124 -154l-191 -50v-181h-125v600
h282zM438 385v56c0 59 -48 107 -106 107h-229v-496h21v170l230 60c49 10 84 54 84 103z" />
    <glyph glyph-name="q" unicode="q" 
d="M324 600c87 0 159 -71 159 -158v-284c0 -67 -50 -124 -109 -147l17 -72h-131l-13 61h-37c-87 0 -158 70 -158 158v284c0 87 71 158 158 158h114zM431 442c0 58 -48 107 -107 107h-114c-17 0 -36 -5 -51 -14c-27 -15 -56 -47 -56 -93v-284c0 -59 49 -107 107 -107h79
l13 -60h23l-14 60h13c45 0 107 35 107 107v284zM324 527h21h-21c48 0 86 -38 86 -85v-286c-3 -15 -6 -28 -14 -44c-16 -24 -42 -40 -72 -40h-18l-23 97l-21 -5l22 -92h-74c-47 0 -85 40 -85 86v284c0 54 45 85 85 85h114zM358 158v284c0 18 -15 33 -34 33h-114
c-18 0 -33 -15 -33 -33v-284c0 -18 15 -33 33 -33h8l-19 76l122 33l25 -101c2 2 4 3 6 6c3 6 6 14 6 19z" />
    <glyph glyph-name="r" unicode="r" horiz-adv-x="516" 
d="M329 527c47 0 85 -38 85 -86v-56c0 -30 -17 -59 -44 -74l-5 -4l-244 -64v284h208zM362 385v56c0 18 -15 33 -33 33h-157v-163l173 45c9 6 17 17 17 29zM487 385c0 -62 -36 -116 -90 -142l65 -243h-129l-56 209l-105 -28v-181h-125v600h282c87 0 158 -71 158 -159v-56z
M435 385v56c0 59 -48 107 -106 107h-229v-496h21v170l193 51l58 -221h22l-60 226s29 7 40 12c35 13 61 55 61 95z" />
    <glyph glyph-name="s" unicode="s" horiz-adv-x="531" 
d="M490 417h-125v24c0 18 -15 32 -32 33h-123c-19 0 -35 -15 -35 -33v-89c0 -7 2 -11 3 -12s3 -1 6 -1c2 0 5 0 8 1l111 26s19 4 29 4c84 0 158 -70 158 -157v-54c0 -88 -72 -159 -158 -159h-123c-88 0 -159 71 -159 159v5h125v-5c0 -18 16 -34 34 -34h123c18 0 33 16 33 34
v54c0 18 -13 30 -28 34c-5 1 -116 -29 -116 -29c-12 -3 -24 -4 -36 -4c-31 0 -60 9 -83 29c-33 25 -52 64 -52 109v88c0 88 72 160 160 160h132c83 0 148 -75 148 -159v-24zM336 526c35 -1 65 -25 76 -57h22c-12 43 -50 75 -96 78h-128c-60 0 -108 -47 -108 -107
c0 -1 0 -34 1 -88c0 -28 11 -53 31 -69c14 -11 31 -17 51 -17c8 0 16 1 24 3l100 24s20 5 32 5h5c39 -7 71 -42 71 -85v-54c0 -48 -39 -86 -85 -86h-123c-30 0 -56 15 -72 38h-24c18 -35 54 -59 96 -59h123c58 0 106 48 106 107v54c0 59 -50 106 -106 106
c-10 0 -32 -6 -32 -6l-96 -23c-6 -2 -13 -3 -19 -3c-15 0 -28 5 -38 13c-15 11 -24 30 -24 52v89c0 47 39 85 87 85h126z" />
    <glyph glyph-name="t" unicode="t" horiz-adv-x="490" 
d="M50 600h410v-125h-141v-475h-126v475h-143v125zM407 527v21h-305v-21h144v-475h21v475h140z" />
    <glyph glyph-name="u" unicode="u" 
d="M355 600h125v-442c0 -87 -71 -158 -158 -158h-114c-87 0 -158 71 -158 158v442h125v-442c0 -18 15 -33 33 -33h114c18 0 33 15 33 33v442zM429 158v390h-22v-390c0 -47 -38 -85 -85 -85h-114c-47 0 -85 38 -85 85v390h-22v-390c0 -58 49 -107 107 -107h114
c58 0 107 49 107 107z" />
    <glyph glyph-name="v" unicode="v" horiz-adv-x="535" 
d="M510 600l-178 -600h-129l-178 600h133l109 -377l110 377h133zM294 52l146 497h-24l-138 -477h-21l-138 477h-24l146 -497h53z" />
    <glyph glyph-name="w" unicode="w" horiz-adv-x="690" 
d="M525 600h125v-600h-204c-36 0 -69 12 -96 33c-27 -21 -60 -33 -96 -33h-45c-88 0 -159 71 -159 159v441h125v-441c0 -19 15 -34 34 -34h45c18 0 34 15 34 34v220l125 31v-251c0 -19 15 -34 33 -34h79v475zM598 52v496h-21v-475h-131c-47 0 -85 39 -85 86v185l-21 -6v-179
c0 -47 -39 -86 -86 -86h-45c-48 0 -86 39 -86 86v390h-21v-390c0 -59 48 -107 107 -107h45c23 0 46 8 65 22c0 0 26 25 31 34c6 -9 32 -34 32 -34c19 -14 41 -22 64 -22h152z" />
    <glyph glyph-name="x" unicode="x" horiz-adv-x="475" 
d="M449 600l-87 -300l87 -300h-130l-70 237h-24l-71 -237h-129l87 300l-87 300h129l71 -238h24l70 238h130zM379 52l-71 248l71 248h-21l-70 -238h-102l-71 238h-21l72 -248l-72 -248h21l71 238h102l70 -238h21z" />
    <glyph glyph-name="y" unicode="y" horiz-adv-x="491" 
d="M335 600h126v-239c0 -86 -68 -155 -153 -159v-202h-125v202c-85 4 -153 73 -153 159v239h126v-239c0 -19 15 -34 34 -34h112c19 0 33 15 33 34v239zM409 361v188h-21v-188c0 -48 -40 -86 -86 -86h-112c-48 0 -87 38 -87 86v188h-21v-188c0 -59 45 -107 103 -107h50v-202
h22v203h49c57 0 103 47 103 106z" />
    <glyph glyph-name="z" unicode="z" horiz-adv-x="470" 
d="M191 126h238v-126h-261c-50 0 -88 21 -108 56c-8 14 -11 31 -11 47c0 25 8 50 24 74l2 3l223 294h-243v126h264c48 0 88 -22 108 -57c8 -13 11 -30 11 -47c0 -24 -8 -50 -24 -75zM386 51v24h-216c-21 0 -36 6 -42 16c-2 4 -3 8 -3 12c0 9 4 21 11 32l226 301
c22 27 28 47 28 58c0 9 -2 18 -6 25c-12 19 -34 29 -63 29h-221v-23h221c22 0 35 -6 41 -17c2 -5 3 -9 3 -14c0 -9 -4 -20 -11 -31l-237 -314c-11 -16 -16 -30 -16 -45c0 -8 2 -17 6 -24c12 -22 39 -29 64 -29h215z" />
    <glyph glyph-name="endash" unicode="&#x2013;" horiz-adv-x="518" 
d="M40 362h438v-125h-438v125zM427 289v21h-335v-21h335z" />
    <glyph glyph-name="emdash" unicode="&#x2014;" horiz-adv-x="680" 
d="M40 362h600v-125h-600v125zM588 289v21h-496v-21h496z" />
    <glyph glyph-name="quoteleft" unicode="&#x2018;" horiz-adv-x="263" 
d="M173 750l50 -179h-130l-53 179h133zM132 623h21l-20 75h-24z" />
    <glyph glyph-name="quoteright" unicode="&#x2019;" horiz-adv-x="263" 
d="M40 571l50 179h133l-53 -179h-130zM110 623h21l23 75h-24z" />
    <glyph glyph-name="quotedblleft" unicode="&#x201c;" horiz-adv-x="449" 
d="M174 750l49 -179h-130l-53 179h134zM133 623h21l-19 75h-25zM359 750l50 -179h-130l-53 179h133zM318 623h21l-20 75h-24z" />
    <glyph glyph-name="quotedblright" unicode="&#x201d;" horiz-adv-x="449" 
d="M226 571l49 179h134l-53 -179h-130zM295 623h21l23 75h-25zM40 571l50 179h133l-53 -179h-130zM110 623h21l23 75h-24z" />
    <glyph glyph-name="parenleft" unicode="(" horiz-adv-x="381" 
d="M284 -95v23h-67c-53 0 -97 44 -97 96v549c0 53 44 96 97 96h67v24h-67c-65 0 -119 -53 -119 -120v-549c0 -66 53 -119 119 -119h67zM341 -15v-139h-125c-97 0 -176 79 -176 176v551c0 99 80 177 176 177h125v-139h-125c-20 0 -37 -17 -37 -37v-552c0 -22 18 -37 37 -37
h125z" />
    <glyph glyph-name="ampersand" unicode="&#x26;" horiz-adv-x="525" 
d="M436 50l79 -104h-157l-41 54h-118c-88 0 -159 72 -159 159v89c0 31 10 60 27 84c-17 26 -27 57 -27 89v26c0 84 73 153 159 153h48c79 0 144 -57 157 -132l2 -19v-32h-124v24c0 19 -16 34 -35 34h-48c-18 0 -33 -15 -34 -33v-21c1 -8 4 -15 9 -24l182 -239v141h124v-140
c0 -42 -17 -81 -44 -109zM385 -2h27l-47 63c15 7 29 18 40 31c14 18 23 42 23 67v88h-22v-89c0 -18 -5 -34 -15 -48s-24 -25 -39 -31l-218 286c-13 15 -21 35 -21 56l1 21c1 53 38 85 85 85h48c39 0 71 -25 82 -59h23c-12 46 -54 80 -105 80h-48c-60 0 -107 -43 -107 -101
v-26c0 -21 6 -41 16 -58c8 -13 22 -24 28 -38l-13 -8c-10 -8 -17 -18 -23 -29c-5 -12 -8 -25 -8 -40v-89c0 -59 48 -107 107 -107h123c7 0 14 1 21 2zM150 307l178 -233h-129c-47 0 -86 38 -86 85c0 0 1 35 1 89c0 7 0 14 2 20c3 12 11 24 21 32c4 3 8 5 13 7zM199 125h23
l-57 77v-43c0 -19 15 -34 34 -34z" />
    <glyph glyph-name="dollar" unicode="$" horiz-adv-x="519" 
d="M479 417h-125v24c0 18 -14 33 -32 34h-123c-19 0 -34 -15 -34 -34v-88c0 -7 2 -11 3 -12s4 -1 8 -1h5l111 28s18 4 28 4c85 0 159 -70 159 -158v-54c0 -88 -70 -158 -157 -159v-92h-126v92c-87 1 -156 71 -156 159v4h125v-4c0 -19 15 -35 33 -35h122c19 0 34 16 34 35v54
c0 16 -13 28 -28 33c-5 1 -116 -28 -116 -28c-12 -3 -24 -5 -36 -5c-30 0 -59 10 -83 28c-33 26 -51 67 -51 111v88c0 86 69 157 156 159v90h127v-91h7c84 -5 149 -74 149 -158v-24zM325 526c35 -2 65 -25 76 -57h23c-12 43 -53 78 -99 78h-55v101h-22v-101h-52
c-57 -1 -105 -48 -105 -106v-88c0 -28 12 -54 32 -69c14 -12 32 -18 51 -18c8 0 16 1 24 3l100 25s19 4 31 4h5c40 -6 71 -43 71 -84v-54c0 -48 -38 -86 -85 -86h-122c-29 0 -55 15 -71 38h-25c18 -35 54 -59 96 -59h50v-102h22v102h50c59 0 107 47 107 107v54
c0 57 -49 105 -106 105c-10 0 -32 -6 -32 -6l-96 -23c-7 -1 -13 -2 -19 -2c-14 0 -27 4 -38 12c-14 12 -24 31 -24 53v88c0 47 39 85 87 85h126z" />
    <glyph glyph-name="plus" unicode="+" horiz-adv-x="522" 
d="M324 363h158v-127h-158v-157h-127v157h-157v127h157v158h127v-158zM430 289v21h-159v159h-21v-159h-158v-21h158v-158h21v158h159z" />
    <glyph glyph-name="equal" unicode="=" horiz-adv-x="614" 
d="M40 233h534v-126h-534v126zM522 158v22h-430v-22h430zM40 487h534v-126h-534v126zM522 414v21h-430v-21h430z" />
    <glyph glyph-name="altN" horiz-adv-x="517" 
d="M257 552l95 -329v377h125v-600h-140c-27 0 -56 22 -64 49l-99 334v-383h-124v600h143c27 0 56 -21 64 -48zM123 527h43c11 0 22 -8 26 -19l126 -427c4 -16 22 -29 38 -29h69v496h-21v-475h-42c-11 0 -23 9 -26 20l-124 426c-4 16 -22 29 -38 29h-72v-496h21v475z" />
    <glyph glyph-name="altS" horiz-adv-x="521" 
d="M481 197v-39c-1 -87 -71 -158 -159 -158h-114c-87 0 -158 71 -158 159v43h125v-43c0 -19 15 -34 33 -34h114c19 0 34 15 34 36v40c-1 20 -25 42 -94 42c-77 0 -135 21 -172 64c-38 43 -39 93 -39 113v23c1 87 72 157 159 157h112c88 0 159 -71 159 -159v-24h-125v24
c0 19 -15 34 -34 34h-112c-19 0 -34 -15 -34 -36v-30c0 -4 1 -13 8 -21c13 -13 41 -20 78 -20c79 0 137 -21 176 -62c38 -40 43 -85 43 -103v-6zM429 157v44c0 7 -1 40 -29 69c-29 31 -74 46 -138 46c-37 0 -87 6 -115 37c-19 20 -23 43 -23 55v33c0 48 38 86 86 86h112
c38 0 70 -24 81 -58h23c-13 46 -54 79 -104 79h-112c-59 0 -107 -47 -107 -105v-34c0 -14 3 -43 26 -68c27 -31 72 -46 133 -46c130 0 146 -69 146 -92v-45c0 -47 -39 -85 -86 -85h-114c-44 0 -80 34 -85 77h-21c5 -55 51 -98 106 -98h114c59 0 107 48 107 105z" />
    <glyph glyph-name="altM" horiz-adv-x="691" 
d="M492 600c88 0 159 -71 159 -159v-441h-125v441c0 18 -15 33 -34 33h-45c-18 0 -34 -15 -34 -33v-221l-125 -31v252c0 18 -16 33 -34 33h-45c-19 0 -34 -15 -34 -33v-441h-125v441c0 88 71 159 159 159h45c37 0 70 -13 97 -33c26 20 59 33 96 33h45zM600 51v390
c0 58 -49 107 -108 107h-45c-18 0 -40 -2 -69 -26c-12 -10 -21 -24 -27 -34c-5 11 -15 22 -28 34c-25 23 -52 26 -69 26h-45c-24 0 -46 -8 -64 -21c-8 -6 -16 -14 -22 -22c-11 -14 -19 -31 -21 -50v-404h21v390c0 47 39 86 86 86h45c48 0 86 -39 86 -86v-185l21 5v180
c0 47 38 86 86 86h45c47 0 86 -39 86 -86v-390h22z" />
    <glyph glyph-name="at" unicode="@" horiz-adv-x="483" 
d="M187 150h266v-65h-266c-87 0 -157 70 -157 157v117c0 87 70 157 157 157h109c87 0 157 -70 157 -157v-89c0 -40 -32 -72 -72 -72h-42c-15 0 -29 4 -40 12c-12 -8 -25 -12 -40 -12h-47c-40 0 -72 32 -72 72v59c0 40 32 72 72 72h119v-131v-2c1 -3 4 -6 8 -6h42
c4 0 8 4 8 8v89c0 51 -42 92 -93 92h-109c-51 0 -92 -41 -92 -92v-117c0 -51 41 -92 92 -92zM426 113v9h-239c-66 0 -120 54 -120 120v117c0 66 54 120 120 120h109c66 0 120 -54 120 -120v-89c0 -19 -16 -35 -35 -35h-42c-19 0 -35 16 -35 35v103h-10v-17
c-8 11 -21 18 -35 18h-47c-25 0 -45 -20 -45 -45v-59c0 -25 20 -45 45 -45h47c17 0 33 10 40 25c7 -15 23 -25 40 -25h42c25 0 45 20 45 45v89c0 72 -58 130 -130 130h-109c-72 0 -130 -58 -130 -130v-117c0 -71 58 -129 130 -129h239zM259 364c19 0 35 -16 35 -35v-59
c0 -19 -16 -35 -35 -35h-47c-20 0 -35 16 -35 35v59c0 19 15 35 35 35h47zM267 268v2v59c0 4 -4 8 -8 8h-47c-5 0 -8 -4 -8 -8v-59c0 -4 3 -8 8 -8h47c4 0 7 3 8 6z" />
    <glyph glyph-name="exclam" unicode="!" horiz-adv-x="205" 
d="M40 600h125v-437h-125v437zM113 215v333h-21v-333h21zM40 106h125v-106h-125v106zM113 41v23h-21v-23h21z" />
    <glyph glyph-name="numbersign" unicode="#" horiz-adv-x="536" 
d="M496 322h-84l-32 -109h70v-77h-93l-19 -62h-82l18 62h-90l-19 -62h-83l18 62h-60v77h82l33 109h-69v78h91l20 67h84l-20 -67h89l20 67h84l-19 -67h61v-78zM342 185l49 165h77v21h-71l20 68h-27l-19 -68h-147l20 68h-27l-19 -68h-85v-21h79l-48 -165h-76v-21h70l-19 -62
h26l18 62h148l-18 -62h25l18 62h87v21h-81zM169 185l49 165h147l-48 -165h-148zM328 322h-89l-32 -109h89z" />
    </font>
</defs>
</svg>
